<?xml version="1.0" encoding="UTF-8" standalone="no"?>
<svg
   xmlns:dc="http://purl.org/dc/elements/1.1/"
   xmlns:cc="http://creativecommons.org/ns#"
   xmlns:rdf="http://www.w3.org/1999/02/22-rdf-syntax-ns#"
   xmlns:svg="http://www.w3.org/2000/svg"
   xmlns="http://www.w3.org/2000/svg"
   xmlns:sodipodi="http://sodipodi.sourceforge.net/DTD/sodipodi-0.dtd"
   xmlns:inkscape="http://www.inkscape.org/namespaces/inkscape"
   version="1.1"
   id="_x32_"
   x="0px"
   y="0px"
   viewBox="0 0 512 512"
   style="width: 256px; height: 256px; opacity: 1;"
   xml:space="preserve"
   sodipodi:docname="runwar.svg"
   inkscape:export-filename="D:\eclipse\pleiades-e4.6\workspace\runwar\src\runwar.png"
   inkscape:export-xdpi="3"
   inkscape:export-ydpi="3"
   inkscape:version="0.92.1 r15371"><metadata
     id="metadata23"><rdf:RDF><cc:Work
         rdf:about=""><dc:format>image/svg+xml</dc:format><dc:type
           rdf:resource="http://purl.org/dc/dcmitype/StillImage" /></cc:Work></rdf:RDF></metadata><defs
     id="defs21" /><sodipodi:namedview
     pagecolor="#ffffff"
     bordercolor="#666666"
     borderopacity="1"
     objecttolerance="10"
     gridtolerance="10"
     guidetolerance="10"
     inkscape:pageopacity="0"
     inkscape:pageshadow="2"
     inkscape:window-width="1531"
     inkscape:window-height="747"
     id="namedview19"
     showgrid="false"
     inkscape:zoom="0.4609375"
     inkscape:cx="-712.67797"
     inkscape:cy="256"
     inkscape:window-x="246"
     inkscape:window-y="138"
     inkscape:window-maximized="0"
     inkscape:current-layer="_x32_" /><style
     type="text/css"
     id="style2">
	.st0{fill:#4B4B4B;}
</style><path
     style="fill:#ffffff;fill-opacity:1;stroke:#000000;stroke-width:18;stroke-linejoin:round;stroke-miterlimit:4;stroke-dasharray:none;stroke-opacity:1"
     d="m 224.54712,62.18776 c -54.16622,0 -97.77286,44.23034 -97.77286,99.1713 v 103.59051 6.31984 99.17129 h 97.77286 75.94342 97.77286 v -99.17129 -6.31984 -103.59051 c 0,-54.94096 -43.60662,-99.1713 -97.77286,-99.1713 z"
     id="rect13"
     inkscape:connector-curvature="0"
     inkscape:export-xdpi="3"
     inkscape:export-ydpi="3" /><path
     id="path64-6-1-6"
     style="opacity:1;fill:#000000;stroke-width:0.54991168"
     d="m 272.76171,147.20245 a 25.711278,24.39891 0 0 0 25.33243,24.39626 25.711278,24.39891 0 0 0 26.07896,-23.67734 25.711278,24.39891 0 0 0 -24.56392,-25.094 25.711278,24.39891 0 0 0 -26.80283,22.93784 m 48.31349,49.73294 a 25.711278,24.39891 0 0 0 25.33244,24.39627 25.711278,24.39891 0 0 0 26.07896,-23.67734 25.711278,24.39891 0 0 0 -24.56393,-25.094 25.711278,24.39891 0 0 0 -26.80282,22.93784 m -67.34991,-47.79761 a 25.711278,24.39891 0 0 1 -25.33244,24.39625 25.711278,24.39891 0 0 1 -26.07895,-23.67733 25.711278,24.39891 0 0 1 24.56393,-25.094 25.711278,24.39891 0 0 1 26.80282,22.93784 m -48.31349,49.73294 a 25.711278,24.39891 0 0 1 -25.33244,24.39625 25.711278,24.39891 0 0 1 -26.07895,-23.67732 25.711278,24.39891 0 0 1 24.56392,-25.094 25.711278,24.39891 0 0 1 26.80282,22.93784 m 127.75601,109.53399 c -16.98766,22.90541 -123.6756,22.49607 -140.37889,-0.53858 -16.70325,-23.03469 37.091,-95.56846 70.78192,-95.43919 33.69094,0.12925 86.58463,73.07238 69.59697,95.97777 z"
     inkscape:connector-curvature="0" /><rect
     style="fill:#ffffff;fill-opacity:1;stroke:#000000;stroke-width:18;stroke-linejoin:round;stroke-miterlimit:4;stroke-dasharray:none;stroke-opacity:1"
     id="rect19"
     width="464.27118"
     height="69.423729"
     x="26.033895"
     y="363.93219" /></svg>