<?xml version="1.0" encoding="UTF-8" standalone="no"?>

<svg
   xmlns:dc="http://purl.org/dc/elements/1.1/"
   xmlns:cc="http://creativecommons.org/ns#"
   xmlns:rdf="http://www.w3.org/1999/02/22-rdf-syntax-ns#"
   xmlns:svg="http://www.w3.org/2000/svg"
   xmlns="http://www.w3.org/2000/svg"
   xmlns:sodipodi="http://sodipodi.sourceforge.net/DTD/sodipodi-0.dtd"
   xmlns:inkscape="http://www.inkscape.org/namespaces/inkscape"
   version="1.1"
   id="_x32_"
   x="0px"
   y="0px"
   viewBox="0 0 512 512"
   style="width: 256px; height: 256px; opacity: 1;"
   xml:space="preserve"
   sodipodi:docname="runwar.svg"
   inkscape:export-filename="D:\eclipse\pleiades-e4.6\workspace\runwar\src\runwar.png"
   inkscape:export-xdpi="3"
   inkscape:export-ydpi="3"
   inkscape:version="0.92.1 r15371"><metadata
     id="metadata23"><rdf:RDF><cc:Work
         rdf:about=""><dc:format>image/svg+xml</dc:format><dc:type
           rdf:resource="http://purl.org/dc/dcmitype/StillImage" /></cc:Work></rdf:RDF></metadata><defs
     id="defs21" /><sodipodi:namedview
     pagecolor="#ffffff"
     bordercolor="#666666"
     borderopacity="1"
     objecttolerance="10"
     gridtolerance="10"
     guidetolerance="10"
     inkscape:pageopacity="0"
     inkscape:pageshadow="2"
     inkscape:window-width="1531"
     inkscape:window-height="783"
     id="namedview19"
     showgrid="false"
     inkscape:zoom="0.4609375"
     inkscape:cx="-466.44068"
     inkscape:cy="256"
     inkscape:window-x="-100"
     inkscape:window-y="48"
     inkscape:window-maximized="0"
     inkscape:current-layer="_x32_" /><style
     type="text/css"
     id="style2">
	.st0{fill:#4B4B4B;}
</style><path
     style="fill:#ffdd55;stroke-width:1.13688588"
     d="m 196.01109,10.848318 c -91.76321,0 -165.637381,70.663651 -165.637381,158.438902 v 165.49916 10.09677 158.43891 H 196.01109 324.66713 490.30452 V 344.88315 334.78638 169.28722 c 0,-87.775251 -73.87417,-158.438902 -165.63739,-158.438902 z"
     id="rect13"
     inkscape:connector-curvature="0" /><path
     sodipodi:type="star"
     style="fill:#000000;stroke-width:1.18703067"
     id="path62"
     sodipodi:sides="3"
     sodipodi:cx="-817.89832"
     sodipodi:cy="-99.796608"
     sodipodi:r1="203.33125"
     sodipodi:r2="101.66562"
     sodipodi:arg1="0.87605805"
     sodipodi:arg2="1.9232556"
     inkscape:flatsided="true"
     inkscape:rounded="0.24"
     inkscape:randomized="0"
     d="m -687.72882,56.406787 c -64.93253,54.110443 -316.13558,-38.286558 -330.53038,-121.575002 -14.3947,-83.288445 191.22496,-254.638185 270.55224,-225.460185 79.32729,29.178 124.91067,292.9247439 59.97814,347.035187 z"
     inkscape:transform-center-x="-21.137038"
     inkscape:transform-center-y="-33.831078"
     transform="matrix(0.67988296,-0.19484226,0.24631821,0.53780003,841.5718,218.19717)" /><path
     style="fill:#000000"
     id="path64"
     sodipodi:type="arc"
     sodipodi:cx="109.55932"
     sodipodi:cy="185.49152"
     sodipodi:rx="46.64407"
     sodipodi:ry="44.474575"
     sodipodi:start="0"
     sodipodi:end="6.2242455"
     sodipodi:open="true"
     d="m 156.20339,185.49152 a 46.64407,44.474575 0 0 1 -45.9568,44.46974 46.64407,44.474575 0 0 1 -47.311088,-43.15927 46.64407,44.474575 0 0 1 44.562598,-45.7416 46.64407,44.474575 0 0 1 48.62429,41.81132" /><path
     style="opacity:1;fill:#000000"
     id="path64-6-1"
     sodipodi:type="arc"
     sodipodi:cx="197.28813"
     sodipodi:cy="97.457619"
     sodipodi:rx="46.64407"
     sodipodi:ry="44.474575"
     sodipodi:start="0"
     sodipodi:end="6.2242455"
     sodipodi:open="true"
     d="m 243.9322,97.457619 a 46.64407,44.474575 0 0 1 -45.9568,44.469751 46.64407,44.474575 0 0 1 -47.31108,-43.15928 46.64407,44.474575 0 0 1 44.56259,-45.7416 46.64407,44.474575 0 0 1 48.6243,41.811323" /><path
     style="opacity:1;fill:#000000"
     id="path64-7"
     sodipodi:type="arc"
     sodipodi:cx="-412.67798"
     sodipodi:cy="187.2034"
     sodipodi:rx="46.64407"
     sodipodi:ry="44.474575"
     sodipodi:start="0"
     sodipodi:end="6.2242455"
     sodipodi:open="true"
     d="m -366.03391,187.2034 a 46.64407,44.474575 0 0 1 -45.9568,44.46975 46.64407,44.474575 0 0 1 -47.31109,-43.15928 46.64407,44.474575 0 0 1 44.5626,-45.7416 46.64407,44.474575 0 0 1 48.6243,41.81132"
     transform="scale(-1,1)" /><path
     style="opacity:1;fill:#000000"
     id="path64-6-1-6"
     sodipodi:type="arc"
     sodipodi:cx="-324.94916"
     sodipodi:cy="99.169495"
     sodipodi:rx="46.64407"
     sodipodi:ry="44.474575"
     sodipodi:start="0"
     sodipodi:end="6.2242455"
     sodipodi:open="true"
     d="m -278.30509,99.169495 a 46.64407,44.474575 0 0 1 -45.95679,44.469745 46.64407,44.474575 0 0 1 -47.31109,-43.15927 46.64407,44.474575 0 0 1 44.56259,-45.741604 46.64407,44.474575 0 0 1 48.6243,41.811323"
     transform="scale(-1,1)" /></svg>