<?xml version="1.0" encoding="UTF-8" standalone="no"?>
<svg
   xmlns:dc="http://purl.org/dc/elements/1.1/"
   xmlns:cc="http://creativecommons.org/ns#"
   xmlns:rdf="http://www.w3.org/1999/02/22-rdf-syntax-ns#"
   xmlns:svg="http://www.w3.org/2000/svg"
   xmlns="http://www.w3.org/2000/svg"
   xmlns:sodipodi="http://sodipodi.sourceforge.net/DTD/sodipodi-0.dtd"
   xmlns:inkscape="http://www.inkscape.org/namespaces/inkscape"
   version="1.1"
   id="_x32_"
   x="0px"
   y="0px"
   viewBox="0 0 512 512"
   style="width: 256px; height: 256px; opacity: 1;"
   xml:space="preserve"
   sodipodi:docname="runwar.svg"
   inkscape:export-filename="D:\eclipse\pleiades-e4.6\workspace\runwar\src\runwar.png"
   inkscape:export-xdpi="9"
   inkscape:export-ydpi="9"
   inkscape:version="0.92.1 r15371"><metadata
     id="metadata23"><rdf:RDF><cc:Work
         rdf:about=""><dc:format>image/svg+xml</dc:format><dc:type
           rdf:resource="http://purl.org/dc/dcmitype/StillImage" /></cc:Work></rdf:RDF></metadata><defs
     id="defs21" /><sodipodi:namedview
     pagecolor="#ffffff"
     bordercolor="#666666"
     borderopacity="1"
     objecttolerance="10"
     gridtolerance="10"
     guidetolerance="10"
     inkscape:pageopacity="0"
     inkscape:pageshadow="2"
     inkscape:window-width="1825"
     inkscape:window-height="1057"
     id="namedview19"
     showgrid="false"
     inkscape:zoom="0.4609375"
     inkscape:cx="-1073.8983"
     inkscape:cy="256"
     inkscape:window-x="-8"
     inkscape:window-y="-8"
     inkscape:window-maximized="1"
     inkscape:current-layer="_x32_" /><style
     type="text/css"
     id="style2">
	.st0{fill:#4B4B4B;}
</style><path
     style="fill:#ffffff;fill-opacity:1;stroke:#000000;stroke-width:22.33929253;stroke-linejoin:round;stroke-miterlimit:4;stroke-dasharray:none;stroke-opacity:1"
     d="m 200.38068,62.18776 c -83.43003,0 -150.595543,44.23034 -150.595543,99.1713 v 103.59051 6.31984 99.17129 H 200.38068 317.35322 467.94874 v -99.17129 -6.31984 -103.59051 c 0,-54.94096 -67.1655,-99.1713 -150.59552,-99.1713 z"
     id="rect13"
     inkscape:connector-curvature="0"
     inkscape:export-xdpi="3"
     inkscape:export-ydpi="3" /><path
     id="path64-6-1-6"
     style="opacity:1;fill:#000000;stroke-width:0.68028641"
     d="m 268.8869,130.51115 a 32.85906,29.217071 0 0 0 32.37489,29.2139 32.85906,29.217071 0 0 0 33.32896,-28.35301 32.85906,29.217071 0 0 0 -31.39274,-30.04942 32.85906,29.217071 0 0 0 -34.25406,27.46748 m 61.74473,59.55392 a 32.85906,29.217071 0 0 0 32.3749,29.2139 32.85906,29.217071 0 0 0 33.32897,-28.353 32.85906,29.217071 0 0 0 -31.39275,-30.04942 32.85906,29.217071 0 0 0 -34.25405,27.46747 m -86.07331,-57.23642 a 32.85906,29.217071 0 0 1 -32.37491,29.2139 32.85906,29.217071 0 0 1 -33.32895,-28.35301 32.85906,29.217071 0 0 1 31.39275,-30.04942 32.85906,29.217071 0 0 1 34.25405,27.46747 m -61.74473,59.55393 a 32.85906,29.217071 0 0 1 -32.3749,29.21389 32.85906,29.217071 0 0 1 -33.32894,-28.35299 32.85906,29.217071 0 0 1 31.39273,-30.04942 32.85906,29.217071 0 0 1 34.25406,27.46747 m 163.27241,131.16416 c -21.71027,27.42863 -158.05764,26.93846 -179.40448,-0.64494 -21.34679,-27.58345 47.40236,-114.44079 90.45943,-114.28599 43.05707,0.15478 110.65531,87.5023 88.94505,114.93093 z"
     inkscape:connector-curvature="0" /><rect
     style="fill:#ffffff;fill-opacity:1;stroke:#000000;stroke-width:18.49125671;stroke-linejoin:round;stroke-miterlimit:4;stroke-dasharray:none;stroke-opacity:1"
     id="rect19"
     width="491.98605"
     height="69.137657"
     x="15.531905"
     y="364.07523" /></svg>